:SAMPLES-PER-SECOND 30
:FULLY-SPECIFIED
:DEGREES
174
root  4.310133326 38.27133479 9.976510926 -0.283996582 -12.7519989 -6.640014648
lowerback  6.926290035 8.955039978 -3.770050049
upperback  4.326429844 11.63519955 -5.149940014
thorax  1.027019978 5.799260139 -3.925709963
lowerneck  8.265749931 0.02231119946 -6.690720081
upperneck  10.54170036 -1.586269975 19.27960014
head  1.807129979 -0.724364996 7.106770039
lclavicle  0 -9.442270133e-015 7.951389973e-016
lhumerus  -0.09704320133 -33.64450073 75.40460205
lradius  1.996240386e-031 -2.91270808e-031 124.4250031
lwrist  -7.062250077e-031 -0 8.477749825
lhand  -1.496451383e-031 -27.76390076 20.11240005
lfingers  90 7.125020027 -90
lthumb  89.89689403 5.08795885 91.16245106
rclavicle  0 -9.442270133e-015 7.951389973e-016
rhumerus  28.74250031 2.002779961 -60.36050034
rradius  6.566231886e-032 3.469537437e-031 79.28330231
rwrist  0 -7.062250077e-031 -2.104640007
rhand  -7.920061211e-032 -33.2840004 9.303460121
rfingers  -90 -7.125020027 -90
rthumb  -92.93752616 -24.25625642 -97.11982154
rfemur  8.396550179 4.697380066 18.43020058
rtibia  -0 0 45.84769821
rfoot  -0 -10.29539967 -11.02530003
rtoes  5.373923086 19.29304026 -105.8922705
lfemur  -38.16350174 -10.2177 5.58754015
ltibia  -0 0 47.72990036
lfoot  4.414443848e-032 0.8941559792 -5.899970055
ltoes  -4.250644065 -19.5611806 -102.515957
175
root  4.317489008 38.59644312 9.860733363 -0.04797363281 -14.3730011 -6.854980469
lowerback  6.837989807 8.884659767 -3.636290073
upperback  4.052289963 11.53590012 -5.328080177
thorax  0.8473119736 5.75469017 -4.1803298
lowerneck  8.226530075 0.3580670059 -6.381649971
upperneck  10.82209969 -1.154539943 19.26939964
head  1.835759997 -0.4900029898 7.046720028
lclavicle  0 -9.442270133e-015 7.951389973e-016
lhumerus  -0.8173050284 -32.51070023 75.02149963
lradius  2.054546738e-031 -2.871877737e-031 125.5800018
lwrist  0 -1.765562519e-031 8.539110184
lhand  -1.496451383e-031 -27.76390076 20.11240005
lfingers  90 7.125020027 -90
lthumb  89.89689403 5.08795885 91.16245106
rclavicle  0 -9.442270133e-015 7.951389973e-016
rhumerus  25.97769928 2.621150017 -62.37030029
rradius  4.679179129e-032 3.499985266e-031 82.3852005
rwrist  1.412450015e-030 -0 -1.941059947
rhand  -7.920061211e-032 -33.2840004 9.303460121
rfingers  -90 -7.125020027 -90
rthumb  -92.93752616 -24.25625642 -97.11982154
rfemur  7.834249973 5.280660152 18.41720009
rtibia  -0 0 45.05830002
rfoot  -0 -9.182559967 -11.25469971
rtoes  5.373923086 19.29304026 -105.8922705
lfemur  -36.53979874 -10.11180019 5.989359856
ltibia  -0 0 45.83229828
lfoot  4.415546677e-032 1.56182003 -4.333570004
ltoes  -4.250644065 -19.5611806 -102.515957
176
root  4.318977716 38.92711129 9.736377986 0.2130126953 -16.05900574 -7.103027344
lowerback  6.511219978 8.760689735 -3.530469894
upperback  3.959219933 11.39470005 -5.427179813
thorax  0.9618729949 5.685979843 -4.280330181
lowerneck  8.030810356 0.7014529705 -6.12045002
upperneck  11.03479958 -0.6938059926 19.05080032
head  1.871819973 -0.2422180027 6.92429018
lclavicle  0 -9.442270133e-015 7.951389973e-016
lhumerus  -1.343819976 -31.14769936 74.57409668
lradius  2.115918196e-031 -2.826965551e-031 126.814003
lwrist  -1.412450015e-030 -0 8.308919907
lhand  -1.496451383e-031 -27.76390076 20.11240005
lfingers  90 7.125020027 -90
lthumb  89.89689403 5.08795885 91.16245106
rclavicle  0 -9.442270133e-015 7.951389973e-016
rhumerus  23.46949959 3.354029894 -64.25679779
rradius  2.795556727e-032 3.520041571e-031 85.459198
rwrist  1.059337512e-030 -0 -1.634699941
rhand  -7.920061211e-032 -33.2840004 9.303460121
rfingers  -90 -7.125020027 -90
rthumb  -92.93752616 -24.25625642 -97.11982154
rfemur  7.282989979 5.943260193 18.45459938
rtibia  -0 0 44.20819855
rfoot  -0 -7.815579891 -11.49120045
rtoes  5.373923086 19.29304026 -105.8922705
lfemur  -34.91040039 -10.02110004 6.43088007
ltibia  -0 0 43.93090057
lfoot  4.417591456e-032 2.340470076 -2.693480015
ltoes  -4.250644065 -19.5611806 -102.515957
177
root  4.325044437 39.25600127 9.611866418 0.5659790039 -17.70300293 -7.244018555
lowerback  5.885350227 8.588540077 -3.529930115
upperback  4.012969971 11.21720028 -5.507100105
thorax  1.367349982 5.595310211 -4.242939949
lowerneck  7.521259785 1.027420044 -5.995150089
upperneck  11.34679985 -0.2712059915 18.74939919
head  1.997380018 -0.0008597790147 6.801569939
lclavicle  0 -9.442270133e-015 7.951389973e-016
lhumerus  -1.472180009 -29.44610023 73.96800232
lradius  2.173734951e-031 -2.782754103e-031 127.9950027
lwrist  -7.062250077e-031 -1.765562519e-031 8.185250282
lhand  -1.496451383e-031 -27.76390076 20.11240005
lfingers  90 7.125020027 -90
lthumb  89.89689403 5.08795885 91.16245106
rclavicle  0 -9.442270133e-015 7.951389973e-016
rhumerus  21.18560028 4.036409855 -65.90309906
rradius  9.415910087e-033 3.529869417e-031 88.47200012
rwrist  7.062250077e-031 -3.531125038e-031 -1.542269945
rhand  -7.920061211e-032 -33.2840004 9.303460121
rfingers  -90 -7.125020027 -90
rthumb  -92.93752616 -24.25625642 -97.11982154
rfemur  6.657289982 6.494100094 18.30190086
rtibia  -0 0 43.30739975
rfoot  -0 -6.646309853 -11.75809956
rtoes  5.373923086 19.29304026 -105.8922705
lfemur  -33.44710159 -10.00329971 6.761149883
ltibia  -0 0 42.0666008
lfoot  4.421051362e-032 3.257889986 -0.997089982
ltoes  -4.250644065 -19.5611806 -102.515957
